<svg width="340" height="21" viewBox="0 0 340 21" fill="none" xmlns="http://www.w3.org/2000/svg">
<path fill-rule="evenodd" clip-rule="evenodd" d="M283 8H284C284.552 8 285 8.44772 285 9V15C285 15.5523 284.552 16 284 16H283C282.448 16 282 15.5523 282 15V9C282 8.44772 282.448 8 283 8Z" fill="#D1D1D6"/>
<path fill-rule="evenodd" clip-rule="evenodd" d="M278.5 10.0005H279.5C280.052 10.0005 280.5 10.4482 280.5 11.0005V15.0005C280.5 15.5528 280.052 16.0005 279.5 16.0005H278.5C277.948 16.0005 277.5 15.5528 277.5 15.0005V11.0005C277.5 10.4482 277.948 10.0005 278.5 10.0005Z" fill="#D1D1D6"/>
<path fill-rule="evenodd" clip-rule="evenodd" d="M274 11.5005H275C275.552 11.5005 276 11.9482 276 12.5005V15.0005C276 15.5528 275.552 16.0005 275 16.0005H274C273.448 16.0005 273 15.5528 273 15.0005V12.5005C273 11.9482 273.448 11.5005 274 11.5005Z" fill="#D1D1D6"/>
<path fill-rule="evenodd" clip-rule="evenodd" d="M287.5 6H288.5C289.052 6 289.5 6.44772 289.5 7V15C289.5 15.5523 289.052 16 288.5 16H287.5C286.948 16 286.5 15.5523 286.5 15V7C286.5 6.44772 286.948 6 287.5 6Z" fill="#3C3C43" fill-opacity="0.18"/>
<path fill-rule="evenodd" clip-rule="evenodd" d="M283 8H284C284.552 8 285 8.44772 285 9V15C285 15.5523 284.552 16 284 16H283C282.448 16 282 15.5523 282 15V9C282 8.44772 282.448 8 283 8Z" fill="black"/>
<path fill-rule="evenodd" clip-rule="evenodd" d="M278.5 10.0005H279.5C280.052 10.0005 280.5 10.4482 280.5 11.0005V15.0005C280.5 15.5528 280.052 16.0005 279.5 16.0005H278.5C277.948 16.0005 277.5 15.5528 277.5 15.0005V11.0005C277.5 10.4482 277.948 10.0005 278.5 10.0005Z" fill="black"/>
<path fill-rule="evenodd" clip-rule="evenodd" d="M274 11.5005H275C275.552 11.5005 276 11.9482 276 12.5005V15.0005C276 15.5528 275.552 16.0005 275 16.0005H274C273.448 16.0005 273 15.5528 273 15.0005V12.5005C273 11.9482 273.448 11.5005 274 11.5005Z" fill="black"/>
<path d="M303.133 12.9395C303.772 12.9395 304.394 13.1075 304.941 13.4279L305.163 13.5577C305.331 13.6562 305.361 13.8865 305.223 14.024L303.329 15.9129C303.212 16.0289 303.024 16.0289 302.907 15.9129L301.026 14.0362C300.888 13.8993 300.917 13.6701 301.084 13.5709L301.303 13.4405C301.856 13.112 302.485 12.9395 303.133 12.9395Z" fill="black"/>
<path d="M303.133 9.46973C304.724 9.46973 306.251 9.99747 307.495 10.9748L307.671 11.1129C307.811 11.223 307.824 11.4305 307.697 11.5564L306.567 12.684C306.462 12.7883 306.297 12.8003 306.178 12.7121L306.04 12.6097C305.2 11.9851 304.186 11.6501 303.133 11.6501C302.073 11.6501 301.053 11.9893 300.21 12.621L300.072 12.7244C299.954 12.8133 299.787 12.8016 299.683 12.697L298.552 11.5697C298.426 11.4442 298.438 11.2372 298.578 11.1269L298.753 10.9886C300 10.0026 301.534 9.46973 303.133 9.46973Z" fill="black"/>
<path d="M303.133 6C305.658 6 308.072 6.89057 309.983 8.52294L310.146 8.66228C310.278 8.77488 310.286 8.97558 310.163 9.09797L309.036 10.2219C308.927 10.3308 308.752 10.3385 308.634 10.2395L308.494 10.1228C306.99 8.86472 305.104 8.18035 303.133 8.18035C301.155 8.18035 299.263 8.86943 297.757 10.1354L297.617 10.2527C297.499 10.3521 297.324 10.3447 297.214 10.2356L296.087 9.11176C295.965 8.98954 295.972 8.78918 296.104 8.67646L296.266 8.53708C298.18 6.89589 300.601 6 303.133 6Z" fill="#3C3C43" fill-opacity="0.3"/>
<path d="M323.438 12.0767H326.583L324.938 16.32C324.701 16.9319 325.345 17.2505 325.763 16.76L330.845 10.7061C330.949 10.5847 331 10.4633 331 10.3318C331 10.0992 330.815 9.92722 330.562 9.92722H327.418L329.057 5.67889C329.294 5.07198 328.65 4.7483 328.237 5.23888L323.15 11.2928C323.046 11.4192 323 11.5355 323 11.667C323 11.9047 323.186 12.0767 323.438 12.0767Z" fill="black"/>
<path d="M326.291 6H318C316.896 6 316 6.89543 316 8V14C316 15.1046 316.896 16 318 16H323.99C323.875 16.3232 323.856 16.6779 323.95 17H318C316.343 17 315 15.6569 315 14V8C315 6.34315 316.343 5 318 5H327.132L326.291 6Z" fill="#3C3C43" fill-opacity="0.6"/>
<path d="M327.707 16H335C336.105 16 337 15.1046 337 14V8C337 6.89543 336.105 6 335 6H330.004C330.121 5.67563 330.139 5.3213 330.045 5H335C336.657 5 338 6.34315 338 8V14C338 15.6569 336.657 17 335 17H326.867L327.707 16Z" fill="#3C3C43" fill-opacity="0.6"/>
<path d="M339 9C339.552 9 340 9.44772 340 10V12C340 12.5523 339.552 13 339 13V9Z" fill="#3C3C43" fill-opacity="0.6"/>
<path d="M325.451 7L322.379 10.6551L322.375 10.6609C322.162 10.922 322 11.2546 322 11.6671C322 12.5217 322.7 13.0767 323.438 13.0767H325.123L324.377 15H318C317.448 15 317 14.5523 317 14V8C317 7.44772 317.448 7 318 7H325.451Z" fill="#34C759"/>
<path d="M16.9506 15.5054C19.6386 15.5054 21.2352 13.4033 21.2352 9.84375C21.2352 8.50342 20.9789 7.37549 20.4882 6.50391C19.7777 5.14893 18.5546 4.4165 17.0092 4.4165C14.7094 4.4165 13.0834 5.96191 13.0834 8.12988C13.0834 10.166 14.5482 11.6455 16.5624 11.6455C17.8002 11.6455 18.8036 11.0669 19.3016 10.0635H19.3236C19.3236 10.0635 19.3529 10.0635 19.3602 10.0635C19.3749 10.0635 19.4261 10.0635 19.4261 10.0635C19.4261 12.4805 18.5106 13.9233 16.9652 13.9233C16.057 13.9233 15.3539 13.4253 15.1122 12.627H13.2299C13.5448 14.3628 15.017 15.5054 16.9506 15.5054ZM17.0165 10.144C15.8007 10.144 14.9364 9.27979 14.9364 8.07129C14.9364 6.89209 15.8446 5.99121 17.0238 5.99121C18.203 5.99121 19.1112 6.90674 19.1112 8.10059C19.1112 9.27979 18.225 10.144 17.0165 10.144Z" fill="black"/>
<path d="M24.3263 15.4028C25.0221 15.4028 25.4982 14.9048 25.4982 14.2456C25.4982 13.5791 25.0221 13.0884 24.3263 13.0884C23.6379 13.0884 23.1545 13.5791 23.1545 14.2456C23.1545 14.9048 23.6379 15.4028 24.3263 15.4028ZM24.3263 9.90967C25.0221 9.90967 25.4982 9.41895 25.4982 8.75977C25.4982 8.09326 25.0221 7.60254 24.3263 7.60254C23.6379 7.60254 23.1545 8.09326 23.1545 8.75977C23.1545 9.41895 23.6379 9.90967 24.3263 9.90967Z" fill="black"/>
<path d="M32.354 15.249H34.1631V13.2788H35.5913V11.6821H34.1631V4.68018H31.497C29.6294 7.49268 28.1426 9.84375 27.1904 11.5942V13.2788H32.354V15.249ZM28.9409 11.6162C30.1714 9.44824 31.27 7.7124 32.2807 6.21826H32.3833V11.7261H28.9409V11.6162Z" fill="black"/>
<path d="M39.6199 15.249H41.5095V4.68018H39.6272L36.866 6.61377V8.43018L39.4954 6.58447H39.6199V15.249Z" fill="black"/>
</svg>
